<svg xmlns="http://www.w3.org/2000/svg" width="461" height="187" fill="none" viewBox="0 0 461 187"><path fill="#f3f3e9" d="M12.5 178.1c-6.7 0-11.2-5-11.2-12.2 0-7 4.2-12 10.6-12 2.6 0 3.9.8 6 .8q.8 0 1.5-.2.3 3.2 1.5 6.5h-1.3c-1.5-3.5-4.2-5.8-7.2-5.8-3.4 0-6.4 2.8-6.4 9.7s2.8 11.8 7.6 11.8c2.7 0 5.2-1.6 6.4-5.3h1.5a9 9 0 0 1-9 6.7m7.5-.5v-1c1.3-.1 2.2-.5 2.2-2.2v-17.1c0-2.2-.7-2.8-2.2-2.8v-1q3.3-.4 5.8-2 .6.1.9.8c-.3 1.3-.3 2.7-.3 5v3L26 163h.1a7 7 0 0 1 6.3-4.4c2.5 0 5.8 1.3 5.8 6.4v9.4c0 1.7 1 2.1 2.2 2.3v1q-4.3-.3-8.7 0v-1c1.3-.2 2.3-.6 2.3-2.3V165q-.1-4.2-3.6-4.3c-2.4 0-3.6 2.1-3.9 4.3v9.3c0 1.7 1 2.1 2.3 2.3v1q-4.4-.3-8.7 0m23.2-21.4c-1.3 0-2.4-1-2.4-2.4s1.1-2.4 2.4-2.4 2.4 1 2.4 2.4-1.1 2.4-2.4 2.4M39 177.6v-1c1.3-.1 2.3-.5 2.3-2.2v-10c0-2.1-.8-2.7-2.1-2.7v-1q3-.4 5.7-2.1.6.2.9.8c-.3 1.3-.3 2.7-.3 5v10c0 1.7 1 2.1 2.3 2.3v1q-4.4-.3-8.8 0m19.3-19c3.8 0 7.6 3.2 7.6 9.9 0 6.6-3.7 9.5-7.9 9.5q-3.4-.1-5-2v3.7c0 2.3.7 2.8 2.6 2.9v1q-3.8.5-6.6 2-.6-.2-1-.8c.4-.6.8-1.4.8-4v-17.5q0-2-2.3-1.6v-1q3.4-.6 5.8-2.1.6.2.9.8l-.2 2.3q1.7-3 5.3-3m-1.2 18.2c2.3 0 4.3-1.9 4.3-7.5 0-5.1-1.7-9-4.6-9-2.5 0-3.8 2.6-3.8 4.9v7.4c0 2 1.6 4.2 4 4.2m19.4-22.5-6.4 2.5-.4-.7 5.2-4.2q1.6-1.2 2.5 0 .8 1.7-1 2.4m4.1 10.2v9.6q0 2.3 2 2.3v.9q-1 .7-2.4.7-3.1 0-3.3-3v-.4h-.3a7 7 0 0 1-6 3.4c-2.5 0-5.2-1.2-5.2-4.6 0-3.1 2.3-5.4 11-6.8V165c0-3.7-.6-5.2-3-5.2-4.7 0-1 5.7-4.8 5.7q-2.2-.2-2.1-2c0-2.6 3.1-4.7 8-4.7 4 0 6.1 1.2 6.1 5.8m-8 11.6c2.1 0 3.8-1.8 3.8-4.1v-4.3c-5.8.8-6.7 3.2-6.7 5 0 2.2 1.5 3.4 3 3.4m21 1.8c-2.6 0-4.7-1.5-4.7-4.8V161h-2.3v-1c2.7-.6 4.3-2.9 5-5.5h1.5v5h4.2v1.5h-4.2v12.6c0 1.3.7 2.5 2.3 2.5q1.4-.1 2-.8v1.1q-1.2 1.5-3.7 1.5m3-.3v-1c1.3-.1 2.3-.5 2.3-2.2v-11.1q0-2-2.3-1.6v-1q3.4-.6 5.7-2.1.6.2.9.8l-.9 4.2h.3q1.4-4.9 5-5c2 0 3.2 1.2 3.2 2.7q-.1 2-2 2.2c-1.6 0-2-2-3.3-2-1.6 0-2.4 2.5-2.4 4.7v8.2c0 1.7 1.2 2.1 2.6 2.3v1q-4.6-.3-9 0m28-13v9.5q0 2.3 2 2.3v.9q-1 .7-2.5.7-3.1 0-3.3-3v-.4h-.3a7 7 0 0 1-6 3.4c-2.4 0-5.2-1.2-5.2-4.6 0-3.1 2.4-5.4 11-6.8V165c0-3.7-.6-5.2-3-5.2-4.6 0-1 5.7-4.8 5.7q-2.1-.2-2-2c0-2.6 3-4.7 8-4.7 3.9 0 6 1.2 6 5.8m-8 11.5c2 0 3.7-1.8 3.7-4.1v-4.3c-5.7.8-6.6 3.2-6.6 5 0 2.2 1.4 3.4 2.9 3.4m22.9 2q-.7-.3-.8-.9l.4-2.3h-.2c-.6 1.4-2.6 3.1-5.7 3.1-4.1 0-7.5-3.3-7.5-9.6 0-6.5 3.6-9.7 7.8-9.7 2.6 0 4.4 1.1 5.1 2.2v-3.6c0-2.2-.8-2.8-2.2-2.8v-1q3.1-.4 5.8-2 .6.1.8.8c-.2 1.3-.2 2.7-.2 5v16.6q-.1 2.4 2.2 2.8v1q-3-.1-5.5.4m-4.6-1.5c2.1 0 3.7-2 3.7-4.3v-9.2q-.9-3-3.9-3.2c-2.4 0-4.5 2.4-4.5 7.8 0 4.7 1.6 9 4.7 9m13.2-20.4a2.4 2.4 0 0 1 0-4.8c1.3 0 2.4 1 2.4 2.4s-1.1 2.4-2.4 2.4m-4.2 21.4v-1c1.3-.1 2.3-.5 2.3-2.2v-10c0-2.1-.8-2.7-2.2-2.7v-1q3.1-.4 5.8-2.1.6.2.9.8c-.3 1.3-.3 2.7-.3 5v10c0 1.7 1 2.1 2.3 2.3v1q-4.4-.3-8.8 0m16.6.4c-4.9 0-8.9-3.3-8.9-9.6 0-6.4 4.1-9.7 9-9.7 4 0 6.7 2.2 6.7 4.8q0 2.1-2 2.3c-3.4 0-.8-6-4.7-6-3 0-4.5 3.1-4.5 7.6 0 5.2 2.1 9.3 5.9 9.3q2.5.2 4.3-2.8h1.1c-1.1 2.7-3.7 4.1-6.9 4.1m10.6-21.8a2.4 2.4 0 0 1 0-4.8q2.1.2 2.3 2.4c0 1.3-1 2.4-2.3 2.4m-4.2 21.4v-1c1.2-.1 2.3-.5 2.3-2.2v-10c0-2.1-.8-2.7-2.2-2.7v-1q3-.4 5.8-2.1.5.2.8.8c-.2 1.3-.2 2.7-.2 5v10c0 1.7 1 2.1 2.3 2.3v1q-4.5-.3-8.8 0m16.5.4c-4.5 0-8.8-3.3-8.8-9.8s4.3-9.5 8.5-9.5c4.5 0 8.8 3.2 8.8 9.7s-4.3 9.6-8.5 9.6m.4-1.1q3.4-.1 3.6-7.4c0-5.5-1.8-9.7-4.7-9.7-2.2 0-3.7 2.6-3.7 7.4 0 5.5 2 9.7 4.8 9.7m7.3.7v-1c1.2-.1 2.2-.5 2.2-2.2v-11.1q0-2-2.3-1.6v-1q3.3-.5 5.7-2.1.6.2.8.8l-.6 3.6h.2a6 6 0 0 1 6-4.3c2.7 0 5.8 1.2 5.8 6.3v9.4c0 1.7 1 2.1 2.3 2.3v1q-4.4-.3-8.7 0v-1c1.2-.2 2.2-.6 2.2-2.3V165q-.2-4.2-3.5-4.3c-2.4 0-3.7 2-3.7 4.3v9.3c0 1.7 1 2.1 2.3 2.3v1q-4.4-.3-8.7 0m34-13v9.5q0 2.3 2.1 2.3v.9q-1 .7-2.5.7-3.2 0-3.3-3v-.4h-.3a7 7 0 0 1-6 3.4c-2.5 0-5.2-1.2-5.2-4.6 0-3.1 2.4-5.4 11-6.8V165c0-3.7-.6-5.2-3-5.2-4.6 0-1 5.7-4.8 5.7q-2.1-.2-2-2c0-2.6 3-4.7 8-4.7 3.8 0 6 1.2 6 5.8m-8 11.5c2.2 0 3.8-1.8 3.8-4.1v-4.3c-5.7.8-6.6 3.2-6.6 5 0 2.2 1.4 3.4 2.9 3.4m9 1.5v-1c1.2-.1 2.3-.5 2.3-2.2v-17.1c0-2.2-.8-2.8-2.2-2.8v-1q3-.4 5.8-2 .5.1.8.8c-.2 1.3-.2 2.7-.2 5v17c0 1.8 1 2.2 2.3 2.3v1zm23.5-1c1.6 0 3.3-.6 4.2-2.6h1.2c-1.2 2.6-4 4-7 4-4.9 0-8.7-3.4-8.7-9.6 0-6 3.5-9.7 8.4-9.7 4 0 7.3 2.3 7.3 6.5 0 1.6-.4 2.8-1.9 2.8h-9.3c.3 5 2 8.7 5.8 8.7m-2.2-16.9c-2.6 0-3.6 2.9-3.6 7.2h7.1c.3-4.2-1-7.2-3.5-7.2m15 18.4c-2.6 0-4-1.6-5.1-1.6q-1.2.2-1.2 1.1h-1l-.2-5.2h.9a7 7 0 0 0 5.9 4.5c1.6 0 2.8-1.1 2.8-2.7 0-1.8-1.8-2.9-4.3-4.4-2.5-1.4-5.2-3-5.2-6.2 0-2.8 2.2-5 5.3-5 2.3 0 3.4 1.1 4.4 1.1q1 0 1-.7h1l.2 5h-.9c-1-2.7-3-4.2-4.9-4.2q-2.5.1-2.7 2.5c0 1.7 1.3 2.6 3.4 3.9 2.2 1.2 6.3 3.1 6.3 6.9 0 3-2.6 5-5.6 5m11.7-.2c-2.7 0-4.8-1.5-4.8-4.8V161H267v-1c2.7-.6 4.3-2.9 5-5.5h1.5v5h4.2v1.5h-4.2v12.6c0 1.3.7 2.5 2.3 2.5q1.4-.1 2-.8v1.1q-1.2 1.5-3.7 1.5m7.1-21.7c-1.3 0-2.4-1-2.4-2.4s1.1-2.4 2.4-2.4 2.4 1 2.4 2.4-1 2.4-2.4 2.4m-4.1 21.4v-1c1.2-.1 2.2-.5 2.2-2.2v-10c0-2.1-.8-2.7-2.1-2.7v-1q3-.4 5.7-2.1.6.2.9.8c-.2 1.3-.2 2.7-.2 5v10c0 1.7 1 2.1 2.2 2.3v1q-4.4-.3-8.7 0m7 0v-1c1.3-.1 2.4-.5 2.4-2.2v-17.1c0-2.2-.8-2.8-2.2-2.8v-1q3-.4 5.8-2 .5.1.8.8c-.2 1.3-.2 2.7-.2 5v17c0 1.8 1 2.2 2.3 2.3v1zm16.5.4c-4.4 0-8.7-3.3-8.7-9.8s4.2-9.5 8.5-9.5c4.4 0 8.8 3.2 8.8 9.7s-4.3 9.6-8.6 9.6m.5-1.1q3.5-.1 3.6-7.4c0-5.5-1.8-9.7-4.7-9.7-2.2 0-3.7 2.6-3.7 7.4 0 5.5 2 9.7 4.8 9.7M323 178c-4.9 0-9-3.3-9-9.6 0-6.4 4.2-9.7 9-9.7 4 0 6.8 2.2 6.8 4.8q0 2.1-2 2.3c-3.5 0-.8-6-4.8-6-2.9 0-4.4 3.1-4.4 7.6 0 5.2 2.1 9.3 5.9 9.3q2.5.2 4.3-2.8h1.1c-1.1 2.7-3.8 4.1-6.9 4.1m15.2 0c-4.5 0-8.8-3.3-8.8-9.8s4.3-9.5 8.5-9.5c4.5 0 8.8 3.2 8.8 9.7s-4.3 9.6-8.5 9.6m.4-1.1q3.5-.1 3.6-7.4c0-5.5-1.8-9.7-4.7-9.7q-3.5.1-3.7 7.4c0 5.5 2 9.7 4.8 9.7m7.4.7v-1c1.3-.1 2.3-.5 2.3-2.2v-11.1q0-2-2.3-1.6v-1q3.4-.6 5.7-2.1.6.2.8.8l-.8 4.2h.3q1.4-4.9 5-5c1.9 0 3.2 1.2 3.2 2.7q-.1 2-2 2.2c-1.7 0-2-2-3.4-2-1.6 0-2.3 2.5-2.3 4.7v8.2c0 1.7 1.2 2.1 2.6 2.3v1q-4.7-.3-9 0m13.1 0v-1c1.2-.1 2.2-.5 2.2-2.2v-11.1q0-2-2.2-1.6v-1q3.3-.6 5.6-2.1.6.2.9.8l-.9 4.2h.3q1.4-4.9 5-5c2 0 3.2 1.2 3.2 2.7q-.1 2-2 2.2c-1.6 0-2-2-3.3-2-1.6 0-2.4 2.5-2.4 4.7v8.2c0 1.7 1.2 2.1 2.6 2.3v1q-4.6-.3-9 0m22.9-1c1.6 0 3.3-.6 4.2-2.6h1.2c-1.1 2.6-4 4-7 4-4.9 0-8.6-3.4-8.6-9.6 0-6 3.4-9.7 8.4-9.7 4 0 7.2 2.3 7.2 6.5 0 1.6-.4 2.8-1.9 2.8h-9.2c.2 5 2 8.7 5.7 8.7m-2.2-16.9c-2.5 0-3.6 2.9-3.6 7.2h7.1c.4-4.2-1-7.2-3.5-7.2m7 18v-1c1.2-.2 2.2-.6 2.2-2.3v-11.1q0-2-2.3-1.6v-1q3.3-.5 5.7-2.1.6.2.8.8l-.7 3.6h.2a6 6 0 0 1 6.2-4.3c2.6 0 5.7 1.2 5.7 6.3v9.4c0 1.7 1 2.1 2.3 2.3v1q-4.4-.3-8.7 0v-1c1.2-.2 2.2-.6 2.2-2.3V165c0-2.7-1.5-4.3-3.5-4.3-2.4 0-3.7 2-3.7 4.3v9.3c0 1.7 1 2.1 2.2 2.3v1q-4.3-.3-8.7 0m25.1.2c-2.6 0-4.8-1.5-4.8-4.8V161h-2.3v-1c2.7-.6 4.4-2.9 5.1-5.5h1.4v5h4.3v1.5h-4.3v12.6c0 1.3.7 2.5 2.3 2.5q1.4-.1 2-.8v1.1q-1.1 1.5-3.7 1.5m7.1-21.7a2.4 2.4 0 0 1 0-4.8c1.3 0 2.4 1 2.4 2.4s-1 2.4-2.4 2.4m-4.1 21.4v-1c1.2-.1 2.2-.5 2.2-2.2v-10c0-2.1-.7-2.7-2.1-2.7v-1q3-.4 5.8-2.1.5.2.8.8c-.2 1.3-.2 2.7-.2 5v10c0 1.7 1 2.1 2.3 2.3v1q-4.6-.3-8.8 0m7.5 0v-1c1.2-.1 2.2-.5 2.2-2.2v-11.1q0-2-2.2-1.6v-1q3.3-.5 5.6-2.1.6.2.9.8l-.7 3.6h.2a6 6 0 0 1 6.1-4.3c2.6 0 5.8 1.2 5.8 6.3v9.4c0 1.7 1 2.1 2.3 2.3v1q-4.4-.3-8.8 0v-1c1.3-.2 2.3-.6 2.3-2.3V165c0-2.7-1.5-4.3-3.6-4.3-2.4 0-3.7 2-3.7 4.3v9.3c0 1.7 1 2.1 2.3 2.3v1q-4.3-.3-8.7 0m27.5.4c-4.5 0-8.8-3.3-8.8-9.8s4.3-9.5 8.5-9.5c4.5 0 8.9 3.2 8.9 9.7s-4.4 9.6-8.6 9.6m.4-1.1c2.2 0 3.7-2.6 3.7-7.4 0-5.5-1.9-9.7-4.8-9.7q-3.5.1-3.6 7.4c0 5.5 1.8 9.7 4.7 9.7M109.5 21.2c0-3.8 3.5-8.6 8.3-8.6 1.4 0 2.7 0 2.7-2.2 0-3.4-3.8-6-8.5-6-19 0-42.4 23-42.4 37.4 0 1.6 1.2 3.2 1.9 3.8 1.4 0 6.2-1.3 10.1-1.3 5.9 0 10 2 10 4.2 0 3.4-4.3 5.6-10.8 5.6Q72.4 54 69.6 53c-18.3 8.6-47.2 38.2-47.2 60 0 10.1 4.4 17.1 16 17.1 21 0 47-34.8 47-49.3q0-7.2-5.8-7.2c-8.6 0-19.1 14.4-20.2 24-6.4.7-14.5 4.5-20.1 10.7 3.3-16 19.5-40.7 37.6-40.7 7.3 0 11.6 4.6 11.6 12 0 21.3-34.9 59.9-60.7 59.9-14.1 0-24-9-24-23.6 0-30.1 32-57 58.7-67.3A16 16 0 0 1 56 35.7c0-17 25.5-35.7 49.9-35.7 9.7 0 18.3 3.6 18.3 12.6 0 6-5.2 13.2-10.6 13.2q-4.1 0-4-4.6M74.1 49.9c1.5.9 4.4 1.3 6.7 1.3 3.5 0 6.6-.9 6.6-2.2 0-.8-2-1.2-4.8-1.2-3.5 0-7 1.6-8.5 2.2"/><path fill="#f3f3e9" d="m140.9 67-1.7 3h-14c-12.6 22.3-28.6 47.6-29 48.5-1.5 2.6-2.1 4.1-2.1 5.6 0 2.6 1.7 3.7 3.5 3.7 9 0 30.3-24.1 40.1-36.7q1-1.8 2.3-1.8.6 0 .6.6t-1 2.4c-9.4 13.4-37.2 45.1-50.5 45.1q-9.7-.2-9.8-9.6c0-2.4 1.3-6 3.2-9.7 1-2 16.1-26.8 29.5-48.2H97.6l1.7-3h13.9q3-4.5 5.8-9.6l12.1-19.5h13.7c-4.1 6.5-8.5 14-11.8 19.5L127 67z"/><path fill="#f3f3e9" d="M131.5 137.8c-10.2 0-14-7.4-14-14.6 0-22.3 34.6-56.7 50.6-56.7q7.5 0 7.5 6c0 14-28.5 28.6-37.9 31.8a46 46 0 0 0-5.6 14.6l-.2 2.6c0 4.2 1.7 8.2 8.1 8.2 13.2 0 34.1-26.4 44.1-38.6q1-1.7 2.3-1.7c.8 0 .8 1 .8 1.2q0 .8-.8 1.8c-10.6 14-35.8 45.5-54.9 45.5m8.5-37.4c10.8-3.2 32.4-18.6 32.4-26.6q0-4-3-4c-9.6 0-26 23.2-29.4 30.6"/><path fill="#f3f3e9" d="M191.3 96.7c-2.2 6.2-5.1 15-5.1 21.3q-1.1 8.7 4.7 8.6c8.6 0 27.7-23.1 38-36Q230 89 231 89q2.9 0-.4 3c-9.1 13.6-36.7 45.5-50.9 45.5-5.2 0-8.7-5-8.7-12C171 79.1 235 3 254.3 3q4.2 0 4.2 4.4c0 24-50 79.5-67.1 89.3M253 7c-12.7 0-53.2 62.1-59.9 84.9 33.3-26.6 62-69.9 62-82.9 0-1.4-1.3-2-2.1-2"/><path fill="#f3f3e9" d="M293.6 92.3c-5.6 8.2-11.8 12.2-17.5 12.2-4.3 0-7.9-2.6-9.7-6-7.3 13-26.8 39.3-44.3 39.3-7.3 0-12.4-4-12.4-11.8s5.1-15 9.3-22l22.2-36.5h13.5l-29 48.7c-.9 2.2-2.3 5-2.3 8 0 4.2 2.4 5.8 6 5.8 13.7 0 31.6-28.3 35.5-34.7a33 33 0 0 1-.6-6.6c0-13.8 5.8-22 10-22 2.5 0 3.1 3 3.1 6 0 8.6-5 16.4-9 22.6 1.5 3.4 3.8 6.6 8.6 6.6s9-3.4 14.7-11.2c2-2.2 3.8-1.4 2 1.6"/><path fill="#f3f3e9" d="M277 137.4c-4.2 0-6.3-2.6-6.3-6.6 0-3 1.3-7.6 4-12.4q1.2-1.7 5-8l26.2-43.9h13.5c-2.7 5-30 49.7-31.4 52-2.5 5.3-1.2 7.3 1.4 7.3 8.4 0 26.6-22.4 36.6-35.1.9-1 1.3-1.8 2.3-1.8q1.6 0-.4 3c-9.4 13.8-37.4 45.5-51 45.5m37.8-86.3c0-4.2 3.3-11.6 10-11.6 2.5 0 4.3 2.2 4.3 5.6 0 5.4-4.3 10.8-9.3 10.8-2.7 0-5-1.7-5-4.7"/><path fill="#f3f3e9" d="M343.9 138.2c-7.5 0-8.5-7.8-1.7-18.4 2.3-4.3 18.7-32.7 20.4-35.7 2.3-4.2 1.4-7.6-1.3-7.6-7 0-19 11.6-27.2 25.2q-1.4 2.2-4.1 7c-3.4 5.4-8.8 14.1-17.7 29.1h-13.5l42-69.9h13L348 78.3l-2.3 3.8C349 78.5 364.2 67 372.6 67c9.5 0 7.2 10.4 4 16.8-2.8 4.8-20.4 33.3-21.5 35.5-2.7 5.4-1.4 7.4.9 7.4 8.3 0 26.6-22 36.5-34.7 1-1.4 1.5-1.8 2.3-1.8q1.5 0-.4 3c-9 13.3-36.6 45.1-50.5 45.1"/><path fill="#f3f3e9" d="M459.2 92.3c-10.2 13-36.6 45-50 45-5 0-7.5-6-5.9-13.7-3.1 4.2-12.9 13.8-20.6 13.8-6.4 0-9-4.6-9-10.8 0-17.6 35-61 52.8-61 5.6 0 7.5 2.9 8.6 4.3l.6-.8q.7-1 1.9-2.6H451l-30.8 51.9c-2.2 3-1 5.6 1.3 5.6 8 0 24.7-20.6 35.3-33.4q1-1.8 2.3-1.8 1.8 0 0 3.4m-31.4-21.7c-10.1 0-37 36.3-37 50.5 0 2.6 2 4.8 3.6 4.8 5.8 0 10.8-7.4 15.6-15.2 2.3-3.4 17.6-29.1 22.8-36.7-.6-1.4-1.8-3.4-5-3.4"/></svg>